<svg xmlns="http://www.w3.org/2000/svg" xmlns:xlink="http://www.w3.org/1999/xlink" xml:space="preserve" id="svg1" version="1.1" viewBox="44.52899575671852 57.120000000000005 206.26166902404526 95.76" style="max-height: 500px" width="206.26166902404526" height="95.76"><defs id="defs1"><rect id="rect4" height="425.37588" width="924.27352" y="225.81683" x="81.399088"/><rect id="rect1" height="399.11811" width="968.91173" y="185.11728" x="93.215085"/></defs><g id="layer1"><text style="fill:#000c42;text-orientation:auto;opacity:0.99999999;stroke-width:5.91496063;text-align:start;writing-mode:lr-tb;direction:ltr;white-space:pre;shape-inside:url(#rect1)" id="text1" transform="scale(0.26458333)" xml:space="preserve"/><text id="text2" y="120.88422" x="49.673683" style="font-size:3.175px;text-align:start;writing-mode:lr-tb;direction:ltr;text-anchor:start;opacity:1;fill:#000c42;stroke-width:1.565" xml:space="preserve"><tspan style="stroke-width:1.565" id="tspan2"/></text><text style="font-style:normal;font-variant:normal;font-weight:normal;font-stretch:normal;font-size:12px;font-family:Sitka;-inkscape-font-specification:'Sitka, Normal';font-variant-ligatures:normal;font-variant-caps:normal;font-variant-numeric:normal;font-variant-east-asian:normal;text-align:start;writing-mode:lr-tb;direction:ltr;white-space:pre;shape-inside:url(#rect4);opacity:1;fill:#000c42;stroke-width:5.91496" id="text4" transform="matrix(4.4899868,0,0,6.7942076,-320.40867,-1473.3823)" xml:space="preserve"><tspan id="tspan1" y="236.39907" x="81.398438">MyFlight</tspan></text><g transform="matrix(0.76664952,0,0,1.0729743,79.13411,-38.393954)" id="g4"><g id="layer2"><path id="path1" d="m 81.945343,89.735176 c 0,0 3.058956,2.677723 4.81512,3.67339 1.999371,1.133554 4.225367,1.823221 6.403613,2.556481 1.854751,0.624363 3.753368,1.118151 5.659005,1.563671 2.477429,0.579199 4.991619,0.989412 7.495709,1.439572 1.57697,0.28349 3.18092,0.42765 4.74066,0.79425 1.27132,0.2988 2.56961,0.57844 3.74785,1.14172 1.0103,0.48299 1.97857,1.10408 2.77986,1.88633 0.45834,0.44745 0.79207,1.01162 1.11691,1.56367 0.16927,0.28766 0.42965,0.90443 0.42965,0.90443 l 0.007,13.03721 c 0,0 -1.40596,-0.0378 -2.09974,-0.14161 -0.64703,-0.0968 -1.29584,-0.22449 -1.91115,-0.44676 -0.38279,-0.13827 -1.09209,-0.54604 -1.09209,-0.54604 0,0 0.59576,-0.69861 0.86871,-1.06727 0.39733,-0.53666 0.80444,-1.07283 1.1169,-1.66295 0.36305,-0.68566 0.65744,-1.41283 0.86871,-2.15936 0.0937,-0.33111 0.14468,-0.67474 0.17374,-1.01763 0.0189,-0.22259 0,-0.67015 0,-0.67015 0,0 -0.25079,0.65575 -0.44676,0.94317 -0.31983,0.46908 -0.72544,0.88358 -1.16655,1.24101 -0.42112,0.34123 -0.89063,0.63299 -1.38993,0.84389 -0.63774,0.26938 -1.32146,0.45348 -2.01044,0.52122 -0.42886,0.0422 -0.87632,0.044 -1.29065,-0.0745 -0.0997,-0.0285 -0.27302,-0.14892 -0.27302,-0.14892 0,0 1.46818,-1.8095 2.10972,-2.77986 0.51501,-0.77898 1.38993,-2.43238 1.38993,-2.43238 0,0 -0.44032,0.50237 -0.67015,0.74461 -0.29796,0.31406 -0.60003,0.62494 -0.91835,0.91834 -0.42297,0.38985 -0.83316,0.80344 -1.31546,1.11691 -0.41576,0.27022 -0.87569,0.4721 -1.3403,0.64533 -0.56228,0.20964 -1.14258,0.39229 -1.73741,0.47158 -0.53305,0.0711 -1.07957,0.0657 -1.61331,0 -0.50785,-0.0625 -1.0066,-0.20229 -1.48921,-0.3723 -0.44691,-0.15743 -1.29065,-0.59569 -1.29065,-0.59569 0,0 1.79936,-0.75057 2.68058,-1.16655 0.83985,-0.39645 1.66853,-0.81777 2.48202,-1.26583 0.72458,-0.39909 1.43231,-0.8286 2.13453,-1.26583 0.41103,-0.25592 1.21619,-0.79424 1.21619,-0.79424 0,0 -1.11356,0.29797 -1.66295,0.47158 -0.8857,0.27989 -1.75532,0.60837 -2.63094,0.91835 -0.32317,0.1144 -0.63848,0.25286 -0.96799,0.34748 -0.63482,0.18228 -1.28148,0.33326 -1.93597,0.42194 -0.59939,0.0812 -1.20731,0.11816 -1.81188,0.0993 -0.70775,-0.0221 -1.41577,-0.10739 -2.10972,-0.24821 -0.66714,-0.13538 -1.322505,-0.33426 -1.960809,-0.57086 -0.562406,-0.20847 -1.117206,-0.44727 -1.638125,-0.74461 -0.263121,-0.15019 -0.744607,-0.52122 -0.744607,-0.52122 0,0 2.684976,-0.0919 4.020881,-0.22338 0.9979,-0.0982 1.98866,-0.2613 2.97843,-0.42195 1.17892,-0.19136 2.35356,-0.40981 3.52446,-0.64532 0.94663,-0.1904 2.82951,-0.62051 2.82951,-0.62051 0,0 -1.96712,0.20639 -2.95361,0.27302 -0.96667,0.0653 -1.93577,0.0879 -2.90396,0.12411 -1.29041,0.0482 -2.58111,0.15915 -3.87195,0.1241 -0.863345,-0.0234 -1.728285,-0.0883 -2.581313,-0.22339 -0.687825,-0.10889 -1.366886,-0.27602 -2.035254,-0.47158 -0.758472,-0.22193 -1.517251,-0.46099 -2.233819,-0.79425 -0.564828,-0.26269 -1.094859,-0.59785 -1.613313,-0.94316 -0.526082,-0.35039 -1.054091,-0.70815 -1.514033,-1.14173 -0.371547,-0.35025 -0.992806,-1.16655 -0.992806,-1.16655 0,0 2.687042,0.61624 4.04569,0.84389 1.488773,0.24946 2.99383,0.38979 4.492459,0.57086 1.587344,0.19179 3.171089,0.4264 4.765489,0.54604 0.92461,0.0694 1.8529,0.0778 2.77986,0.0993 0.77754,0.018 1.5554,0.0332 2.3331,0.0248 0.51319,-0.006 1.53885,-0.0496 1.53885,-0.0496 0,0 -6.02312,-0.77521 -9.00973,-1.31547 -1.232759,-0.223 -2.454538,-0.5048 -3.6734,-0.79424 -0.931281,-0.22115 -1.863679,-0.44266 -2.779863,-0.71979 -1.014288,-0.3068 -2.018225,-0.65174 -3.003243,-1.04244 -0.808969,-0.32087 -1.619872,-0.64843 -2.382739,-1.06727 -0.408322,-0.224181 -0.785626,-0.50132 -1.166551,-0.769425 -0.473595,-0.333328 -0.954464,-0.66065 -1.38993,-1.042448 -0.409118,-0.358698 -0.786779,-0.754174 -1.14173,-1.166548 -0.331396,-0.385007 -0.628695,-0.798873 -0.918348,-1.216191 -0.30754,-0.443089 -0.626174,-0.883356 -0.868706,-1.36511 -0.239055,-0.474847 -0.403093,-0.984753 -0.570865,-1.489213 -0.162823,-0.489579 -0.421922,-1.489219 -0.421922,-1.489219 z" style="fill:#000c42;fill-opacity:1;stroke-width:1.565"/></g><g id="layer1-7"/></g></g></svg>